<svg xmlns="http://www.w3.org/2000/svg" width="1200" height="630" viewBox="0 0 1200 630" role="img" aria-labelledby="title desc">
  <title id="title">MetroTrust Capital social share image</title>
  <desc id="desc">MetroTrust Capital brand image for social sharing with the app icon and bank name.</desc>
  <defs>
    <linearGradient id="bg" x1="0%" y1="0%" x2="100%" y2="100%">
      <stop offset="0%" stop-color="#081321" />
      <stop offset="55%" stop-color="#10253b" />
      <stop offset="100%" stop-color="#07101a" />
    </linearGradient>
    <linearGradient id="iconOuter" x1="0%" y1="0%" x2="100%" y2="100%">
      <stop offset="0%" stop-color="#22384b" />
      <stop offset="100%" stop-color="#0a1421" />
    </linearGradient>
    <linearGradient id="iconInner" x1="0%" y1="0%" x2="100%" y2="100%">
      <stop offset="0%" stop-color="#17293a" />
      <stop offset="100%" stop-color="#09111b" />
    </linearGradient>
    <linearGradient id="glowStroke" x1="0%" y1="0%" x2="100%" y2="100%">
      <stop offset="0%" stop-color="#f2f8ff" />
      <stop offset="100%" stop-color="#cadcff" />
    </linearGradient>
    <filter id="iconGlow" x="-30%" y="-30%" width="160%" height="160%">
      <feGaussianBlur stdDeviation="8" result="blur" />
      <feMerge>
        <feMergeNode in="blur" />
        <feMergeNode in="SourceGraphic" />
      </feMerge>
    </filter>
  </defs>
  <rect width="1200" height="630" fill="url(#bg)" rx="38" />
  <path d="M0 470c156-108 335-122 520-44 197 84 394 76 680-32v236H0Z" fill="rgba(55,85,121,0.18)" />
  <circle cx="1095" cy="108" r="170" fill="rgba(255,255,255,0.04)" />
  <circle cx="120" cy="566" r="164" fill="rgba(255,255,255,0.03)" />
  <rect x="118" y="142" width="248" height="248" rx="64" fill="url(#iconOuter)" />
  <rect x="132" y="156" width="220" height="220" rx="56" fill="url(#iconInner)" />
  <circle cx="242" cy="266" r="70" fill="rgba(255,255,255,0.02)" stroke="rgba(188,206,232,0.4)" stroke-width="4" />
  <circle cx="242" cy="266" r="57" fill="rgba(3,10,17,0.34)" stroke="rgba(188,206,232,0.18)" stroke-width="2" />
  <g filter="url(#iconGlow)" fill="none" stroke="url(#glowStroke)" stroke-linecap="round" stroke-linejoin="round">
    <path d="M198 246 242 208 286 246" stroke-width="8" />
    <path d="M212 300v-34l30 28 30-28v34" stroke-width="9" />
  </g>
  <text x="372" y="248" fill="#f7f8fb" font-family="Georgia, 'Times New Roman', serif" font-size="62" font-weight="700">MetroTrust Capital</text>
  <text x="376" y="330" fill="#e8eff8" font-family="Arial, Helvetica, sans-serif" font-size="34">Secure Online Banking</text>
  <text x="376" y="394" fill="#b8c9df" font-family="Arial, Helvetica, sans-serif" font-size="22">Cards, transfers, and account access</text>
  <rect x="372" y="452" width="470" height="2" fill="rgba(255,255,255,0.12)" />
  <text x="376" y="504" fill="#d8e4f4" font-family="Arial, Helvetica, sans-serif" font-size="26">metrotrustcapital.com</text>
</svg>